<?xml version="1.0" standalone="no"?>
 <!DOCTYPE svg PUBLIC "-//W3C//DTD SVG 1.1//EN" 
 "http://www.w3.org/Graphics/SVG/1.1/DTD/svg11.dtd"> 
<svg xmlns="http://www.w3.org/2000/svg" version="1.1" 
    width="29.7002cm" height="21.0007cm" viewBox="0 0 116930 82680 ">
<title>SVG Picture created as kellorobo-Edge.Cuts.svg date 2016/05/03 13:36:57 </title>
  <desc>Picture generated by PCBNEW </desc>
<g style="fill:#000000; fill-opacity:1;stroke:#000000; stroke-opacity:1;
stroke-linecap:round; stroke-linejoin:round; "
 transform="translate(0 0) scale(1 1)">
</g>
<g style="fill:#000000; fill-opacity:0.0; 
stroke:#000000; stroke-width:-0.000393701; stroke-opacity:1; 
stroke-linecap:round; stroke-linejoin:round;">
</g>
<g style="fill:#000000; fill-opacity:0.0; 
stroke:#000000; stroke-width:59.0551; stroke-opacity:1; 
stroke-linecap:round; stroke-linejoin:round;">
<path d="M15800 12400
L16300 12400
" />
<path d="M12500 15700
L15800 12400
" />
<path d="M12500 31000
L12500 15700
" />
<path d="M13300 31800
L12500 31000
" />
<path d="M14500 31800
L13300 31800
" />
<path d="M17800 35100
L14500 31800
" />
<path d="M17800 47200
L17800 35100
" />
<path d="M25300 54700
L17800 47200
" />
<path d="M30700 54700
L25300 54700
" />
<path d="M32000 53400
L30700 54700
" />
<path d="M32000 32700
L32000 53400
" />
<path d="M29300 32700
L32000 32700
" />
<path d="M29000 32400
L29300 32700
" />
<path d="M27700 32400
L29000 32400
" />
<path d="M27200 31900
L27700 32400
" />
<path d="M27200 30300
L27200 31900
" />
<path d="M27800 29700
L27200 30300
" />
<path d="M31800 29700
L27800 29700
" />
<path d="M32000 29500
L31800 29700
" />
<path d="M32000 15800
L32000 29500
" />
<path d="M28600 12400
L32000 15800
" />
<path d="M21600 12400
L28600 12400
" />
<path d="M21600 12400
L16300 12400
" />
</g> 
</svg>
