<?xml version="1.0" encoding="UTF-8" standalone="no"?>
<!-- Created with Inkscape (http://www.inkscape.org/) -->

<svg
   xmlns:dc="http://purl.org/dc/elements/1.1/"
   xmlns:cc="http://creativecommons.org/ns#"
   xmlns:rdf="http://www.w3.org/1999/02/22-rdf-syntax-ns#"
   xmlns:svg="http://www.w3.org/2000/svg"
   xmlns="http://www.w3.org/2000/svg"
   xmlns:sodipodi="http://sodipodi.sourceforge.net/DTD/sodipodi-0.dtd"
   xmlns:inkscape="http://www.inkscape.org/namespaces/inkscape"
   width="3188.9763"
   height="2125.9841"
   id="svg2"
   version="1.1"
   inkscape:version="0.48.4 r9939"
   sodipodi:docname="case_proto.svg">
  <sodipodi:namedview
     id="base"
     pagecolor="#ffffff"
     bordercolor="#666666"
     borderopacity="1.0"
     inkscape:pageopacity="0.0"
     inkscape:pageshadow="2"
     inkscape:zoom="0.70450533"
     inkscape:cx="545.09235"
     inkscape:cy="1771.9029"
     inkscape:document-units="mm"
     inkscape:current-layer="layer1"
     showgrid="true"
     objecttolerance="1"
     gridtolerance="1"
     guidetolerance="1"
     units="mm"
     inkscape:window-width="1600"
     inkscape:window-height="851"
     inkscape:window-x="0"
     inkscape:window-y="23"
     inkscape:window-maximized="1">
    <inkscape:grid
       type="xygrid"
       id="grid2985"
       empspacing="5"
       visible="true"
       enabled="true"
       snapvisiblegridlinesonly="true"
       units="mm"
       spacingx="10mm"
       spacingy="10mm" />
  </sodipodi:namedview>
  <defs
     id="defs4" />
  <metadata
     id="metadata7">
    <rdf:RDF>
      <cc:Work
         rdf:about="">
        <dc:format>image/svg+xml</dc:format>
        <dc:type
           rdf:resource="http://purl.org/dc/dcmitype/StillImage" />
        <dc:title />
      </cc:Work>
    </rdf:RDF>
  </metadata>
  <g
     inkscape:label="Layer 1"
     inkscape:groupmode="layer"
     id="layer1"
     transform="translate(0,1073.622)">
    <path
       inkscape:connector-curvature="0"
       id="path3086"
       inkscape:label="part"
       style="fill:none;stroke:#000000;stroke-width:0.07086614;stroke-miterlimit:4;stroke-opacity:1;stroke-dasharray:none"
       d="m 14.481887,-846.24755 32.716535,0 0,-14.1733 36.141732,0 0,14.1733 46.535426,0 0,-14.1733 36.14174,0 0,14.1733 32.71653,0" />
    <path
       inkscape:connector-curvature="0"
       id="path3088"
       inkscape:label="part"
       style="fill:none;stroke:#000000;stroke-width:0.07086614;stroke-miterlimit:4;stroke-opacity:1;stroke-dasharray:none"
       d="m 198.73385,-846.24755 0,32.7165 14.17323,0 0,36.1417 -14.17323,0 0,46.5355 14.17323,0 0,36.1417 -14.17323,0 0,32.7165" />
    <path
       inkscape:connector-curvature="0"
       id="path3090"
       inkscape:label="part"
       style="fill:none;stroke:#000000;stroke-width:0.07086614;stroke-miterlimit:4;stroke-opacity:1;stroke-dasharray:none"
       d="m 198.73385,-661.99565 -32.71653,0 0,14.17328 -36.14174,0 0,-14.17328 -46.535426,0 0,14.17328 -36.141732,0 0,-14.17328 -32.716535,0" />
    <path
       inkscape:connector-curvature="0"
       id="path3094"
       inkscape:label="part"
       style="fill:none;stroke:#000000;stroke-width:0.07086614;stroke-miterlimit:4;stroke-opacity:1;stroke-dasharray:none"
       d="m 219.99369,-860.42085 35.78741,0 0,14.1733 34.7244,0 0,-14.1733 36.14174,0 0,14.1733 34.72441,0 0,-14.1733 36.14173,0 0,14.1733 34.72441,0 0,-14.1733 36.14173,0 0,14.1733 34.72441,0 0,-14.1733 36.14173,0 0,14.1733 34.72441,0 0,-14.1733 36.14173,0 0,14.1733 34.72441,0 0,-14.1733 36.14174,0 0,14.1733 34.7244,0 0,-14.1733 35.78741,0" />
    <path
       inkscape:connector-curvature="0"
       id="path3096"
       inkscape:label="part"
       style="fill:none;stroke:#000000;stroke-width:0.07086614;stroke-miterlimit:4;stroke-opacity:1;stroke-dasharray:none"
       d="m 751.48976,-860.42085 0,47.5985 -14.17323,0 0,34.7244 14.17323,0 0,47.9527 -14.17323,0 0,34.7244 14.17323,0 0,47.59848" />
    <path
       inkscape:connector-curvature="0"
       id="path3098"
       inkscape:label="part"
       style="fill:none;stroke:#000000;stroke-width:0.07086614;stroke-miterlimit:4;stroke-opacity:1;stroke-dasharray:none"
       d="m 751.48976,-647.82237 -35.78741,0 0,-14.17328 -34.7244,0 0,14.17328 -36.14174,0 0,-14.17328 -34.72441,0 0,14.17328 -36.14173,0 0,-14.17328 -34.72441,0 0,14.17328 -36.14173,0 0,-14.17328 -34.72441,0 0,14.17328 -36.14173,0 0,-14.17328 -34.72441,0 0,14.17328 -36.14173,0 0,-14.17328 -34.72441,0 0,14.17328 -36.14174,0 0,-14.17328 -34.7244,0 0,14.17328 -35.78741,0" />
    <path
       inkscape:connector-curvature="0"
       id="path3100"
       inkscape:label="part"
       style="fill:none;stroke:#000000;stroke-width:0.07086614;stroke-miterlimit:4;stroke-opacity:1;stroke-dasharray:none"
       d="m 219.99369,-647.82237 0,-47.59848 14.17323,0 0,-34.7244 -14.17323,0 0,-47.9527 14.17323,0 0,-34.7244 -14.17323,0 0,-47.5985" />
    <g
       id="g4782"
       transform="matrix(0,1,-1,0,-667.08589,-1627.5247)">
      <path
         d="m 571.18973,-1415.4413 32.71653,0 0,-14.1733 36.14174,0 0,14.1733 46.53543,0 0,-14.1733 36.14173,0 0,14.1733 32.71654,0"
         style="fill:none;stroke:#000000;stroke-width:0.07086614;stroke-miterlimit:4;stroke-opacity:1;stroke-dasharray:none"
         inkscape:label="part"
         id="path3102"
         inkscape:connector-curvature="0" />
      <path
         d="m 755.4417,-1231.1894 -32.71654,0 0,14.1733 -36.14173,0 0,-14.1733 -46.53543,0 0,14.1733 -36.14174,0 0,-14.1733 -32.71653,0"
         style="fill:none;stroke:#000000;stroke-width:0.07086614;stroke-miterlimit:4;stroke-opacity:1;stroke-dasharray:none"
         inkscape:label="part"
         id="path3106"
         inkscape:connector-curvature="0" />
      <path
         d="m 571.18973,-1231.1894 0,-32.7165 -14.17323,0 0,-36.1417 14.17323,0 0,-46.5355 -14.17323,0 0,-36.1417 14.17323,0 0,-32.7165"
         style="fill:none;stroke:#000000;stroke-width:0.07086614;stroke-miterlimit:4;stroke-opacity:1;stroke-dasharray:none"
         inkscape:label="part"
         id="path3108"
         inkscape:connector-curvature="0" />
      <path
         inkscape:connector-curvature="0"
         id="path3161"
         d="m 755.42333,-1415.4191 0.0191,184.264"
         style="fill:none;stroke:#000000;stroke-width:0.07086614;stroke-linecap:butt;stroke-linejoin:miter;stroke-miterlimit:4;stroke-opacity:1;stroke-dasharray:none" />
    </g>
    <path
       style="fill:none;stroke:#000000;stroke-width:0.07086614;stroke-linecap:butt;stroke-linejoin:miter;stroke-miterlimit:4;stroke-opacity:1;stroke-dasharray:none"
       d="m 14.482598,-846.23535 -0.0039,184.3095"
       id="path3165"
       inkscape:connector-curvature="0" />
    <g
       id="g4623"
       transform="matrix(1,0,0,-1,-212.91535,-1392.092)"
       style="fill:none;stroke:#000000;stroke-width:0.07086614;stroke-miterlimit:4;stroke-opacity:1;stroke-dasharray:none">
      <path
         d="m 224.80015,-770.69321 35.07874,0 0,14.1733 36.14174,0 0,-14.1733 34.72441,0 0,14.1733 36.14173,0 0,-14.1733 34.72441,0 0,14.1733 36.14173,0 0,-14.1733 34.72441,0 0,14.1733 36.14173,0 0,-14.1733 34.72441,0 0,14.1733 36.14173,0 0,-14.1733 34.72441,0 0,14.1733 36.14173,0 0,-14.1733 34.72441,0 0,14.1733 36.14174,0 0,-14.1733 35.07874,0"
         style="fill:none;stroke:#000000;stroke-width:0.07086614;stroke-miterlimit:4;stroke-opacity:1;stroke-dasharray:none"
         inkscape:label="part"
         id="path3078"
         inkscape:connector-curvature="0" />
      <path
         d="m 756.29622,-770.69321 0,-33.4252 -14.17323,0 0,-34.72437 14.17323,0 0,-47.95275 -14.17323,0 0,-34.72441 14.17323,0 0,-33.4252"
         style="fill:none;stroke:#000000;stroke-width:0.07086614;stroke-miterlimit:4;stroke-opacity:1;stroke-dasharray:none"
         inkscape:label="part"
         id="path3080"
         inkscape:connector-curvature="0" />
      <path
         d="m 224.80015,-954.94514 0,33.4252 14.17323,0 0,34.72441 -14.17323,0 0,47.95275 14.17323,0 0,34.72437 -14.17323,0 0,33.4252"
         style="fill:none;stroke:#000000;stroke-width:0.07086614;stroke-miterlimit:4;stroke-opacity:1;stroke-dasharray:none"
         inkscape:label="part"
         id="path3084"
         inkscape:connector-curvature="0" />
      <path
         inkscape:connector-curvature="0"
         id="path3159"
         d="m 224.79196,-954.9078 531.52965,-0.0316"
         style="fill:none;stroke:#000000;stroke-width:0.07086614;stroke-linecap:butt;stroke-linejoin:miter;stroke-miterlimit:4;stroke-opacity:1;stroke-dasharray:none" />
      <path
         transform="matrix(0.52685142,0,0,-0.5271412,110.44386,-519.39041)"
         d="m 310.24123,509.43427 c 0,7.38476 -5.99416,13.3713 -13.38832,13.3713 -7.39417,0 -13.38833,-5.98654 -13.38833,-13.3713 0,-7.38477 5.99416,-13.37131 13.38833,-13.37131 7.39416,0 13.38832,5.98654 13.38832,13.37131 z"
         sodipodi:ry="13.371303"
         sodipodi:rx="13.388326"
         sodipodi:cy="509.43427"
         sodipodi:cx="296.85291"
         id="path4557"
         style="fill:none;stroke:#000000;stroke-width:0.1344718;stroke-miterlimit:4;stroke-opacity:1;stroke-dasharray:none"
         sodipodi:type="arc" />
      <rect
         rx="7.0866141"
         y="-835.68445"
         x="493.9588"
         height="14.058803"
         width="212.46425"
         id="rect4609"
         style="fill:none;stroke:#000000;stroke-width:0.07086614;stroke-miterlimit:4;stroke-opacity:1;stroke-dasharray:none" />
    </g>
    <path
       d="m 7.6265024,-885.66745 35.0787396,0 0,14.1733 36.14174,0 0,-14.1733 34.724408,0 0,14.1733 36.14173,0 0,-14.1733 34.72441,0 0,14.1733 36.14173,0 0,-14.1733 34.72441,0 0,14.1733 36.14173,0 0,-14.1733 34.72441,0 0,14.1733 36.14173,0 0,-14.1733 34.72441,0 0,14.1733 36.14173,0 0,-14.1733 34.72441,0 0,14.1733 36.14174,0 0,-14.1733 35.07874,0"
       style="fill:none;stroke:#000000;stroke-width:0.07086614;stroke-miterlimit:4;stroke-opacity:1;stroke-dasharray:none"
       inkscape:label="part"
       id="path4611"
       inkscape:connector-curvature="0" />
    <path
       d="m 539.12257,-885.66745 0,-33.4252 -14.17323,0 0,-34.7244 14.17323,0 0,-47.95265 -14.17323,0 0,-34.7244 14.17323,0 0,-33.4252"
       style="fill:none;stroke:#000000;stroke-width:0.07086614;stroke-miterlimit:4;stroke-opacity:1;stroke-dasharray:none"
       inkscape:label="part"
       id="path4613"
       inkscape:connector-curvature="0" />
    <path
       d="m 7.6265024,-1069.9193 0,33.4252 14.1732296,0 0,34.7244 -14.1732296,0 0,47.95265 14.1732296,0 0,34.7244 -14.1732296,0 0,33.4252"
       style="fill:none;stroke:#000000;stroke-width:0.07086614;stroke-miterlimit:4;stroke-opacity:1;stroke-dasharray:none"
       inkscape:label="part"
       id="path4615"
       inkscape:connector-curvature="0" />
    <path
       inkscape:connector-curvature="0"
       id="path4617"
       d="m 7.6183124,-1069.882 531.5296476,-0.032"
       style="fill:none;stroke:#000000;stroke-width:0.07086614;stroke-linecap:butt;stroke-linejoin:miter;stroke-miterlimit:4;stroke-opacity:1;stroke-dasharray:none" />
    <path
       transform="matrix(0.52685142,0,0,-0.5271412,-106.72979,-634.36475)"
       d="m 310.24123,509.43427 a 13.388326,13.371303 0 1 1 -26.77665,0 13.388326,13.371303 0 1 1 26.77665,0 z"
       sodipodi:ry="13.371303"
       sodipodi:rx="13.388326"
       sodipodi:cy="509.43427"
       sodipodi:cx="296.85291"
       id="path4619"
       style="fill:none;stroke:#000000;stroke-width:0.1344718;stroke-miterlimit:4;stroke-opacity:1;stroke-dasharray:none"
       sodipodi:type="arc" />
    <rect
       rx="7.0866141"
       y="-950.65863"
       x="276.78516"
       height="14.058803"
       width="212.46425"
       id="rect4621"
       style="fill:none;stroke:#000000;stroke-width:0.07086614;stroke-miterlimit:4;stroke-opacity:1;stroke-dasharray:none" />
  </g>
  <g
     inkscape:label="newlayer"
     inkscape:groupmode="layer"
     id="g3041"
     transform="translate(0,1381.8897)" />
  <g
     id="g3127"
     inkscape:groupmode="layer"
     inkscape:label="newlayer"
     transform="translate(0,1381.8897)" />
</svg>
