<?xml version="1.0" encoding="UTF-8" standalone="no"?>
<!-- Created with Inkscape (http://www.inkscape.org/) -->

<svg
   xmlns:dc="http://purl.org/dc/elements/1.1/"
   xmlns:cc="http://creativecommons.org/ns#"
   xmlns:rdf="http://www.w3.org/1999/02/22-rdf-syntax-ns#"
   xmlns:svg="http://www.w3.org/2000/svg"
   xmlns="http://www.w3.org/2000/svg"
   xmlns:sodipodi="http://sodipodi.sourceforge.net/DTD/sodipodi-0.dtd"
   xmlns:inkscape="http://www.inkscape.org/namespaces/inkscape"
   width="1052.3622"
   height="744.09448"
   id="svg4631"
   version="1.1"
   inkscape:version="0.48.4 r9939"
   sodipodi:docname="New document 19">
  <defs
     id="defs4633" />
  <sodipodi:namedview
     id="base"
     pagecolor="#ffffff"
     bordercolor="#666666"
     borderopacity="1.0"
     inkscape:pageopacity="0.0"
     inkscape:pageshadow="2"
     inkscape:zoom="0.7"
     inkscape:cx="330.47289"
     inkscape:cy="403.43372"
     inkscape:document-units="mm"
     inkscape:current-layer="layer1"
     showgrid="false"
     units="mm"
     inkscape:window-width="1600"
     inkscape:window-height="851"
     inkscape:window-x="0"
     inkscape:window-y="23"
     inkscape:window-maximized="1" />
  <metadata
     id="metadata4636">
    <rdf:RDF>
      <cc:Work
         rdf:about="">
        <dc:format>image/svg+xml</dc:format>
        <dc:type
           rdf:resource="http://purl.org/dc/dcmitype/StillImage" />
        <dc:title></dc:title>
      </cc:Work>
    </rdf:RDF>
  </metadata>
  <g
     inkscape:label="Layer 1"
     inkscape:groupmode="layer"
     id="layer1"
     transform="translate(0,-308.2677)">
    <g
       id="g4261"
       transform="translate(-481.93332,-579.59881)"
       style="fill:none;stroke:#000000;stroke-width:0.07086614;stroke-miterlimit:4;stroke-opacity:1;stroke-dasharray:none">
      <g
         style="fill:none;stroke:#000000;stroke-width:0.02;stroke-miterlimit:4;stroke-opacity:1;stroke-dasharray:none"
         transform="matrix(3.5433073,0,0,-3.5433073,968.03062,1161.1216)"
         id="Sketch">
        <path
           style="fill:none;stroke:#000000;stroke-width:0.02;stroke-miterlimit:4;stroke-opacity:1;stroke-dasharray:none"
           d="m -21.369729,-13.304129 a 3,3 0 0 1 -0.395329,3.3098963 l -3.901548,4.5582807 a 3,3 0 0 1 -3.209231,0.901406 3,3 0 0 0 -1.860182,5.70436 3,3 0 0 1 2.06091,2.6199892 l 0.46438,5.9820028 a 3,3 0 0 1 -1.631878,2.90666 3,3 0 0 0 2.718244,5.348939 3,3 0 0 1 3.309896,0.395329 l 4.558281,3.901548 a 3,3 0 0 1 0.901406,3.209231 3,3 0 1 0 5.70436,1.860182 3,3 0 0 1 2.61999,-2.06091 l 5.9820024,-0.46438 a 3,3 0 0 1 2.9066593,1.631878 3,3 0 1 0 5.3489389,-2.718244 3,3 0 0 1 0.3953293,-3.309896 l 3.9015478,-4.558281 a 3,3 0 0 1 3.2092313,-0.901406 3,3 0 1 0 1.860182,-5.70436 3,3 0 0 1 -2.06091,-2.6199904 L 11.048171,0.70610432 A 3,3 0 0 1 12.680049,-2.2005557 3,3 0 1 0 9.961805,-7.5494946 3,3 0 0 1 6.6519085,-7.9448239 L 2.0936276,-11.846372 a 3,3 0 0 1 -0.9014056,-3.209231 3,3 0 0 0 -5.70436,-1.860182 3,3 0 0 1 -2.6199901,2.06091 l -5.9820019,0.46438 a 3,3 0 0 1 -2.90666,-1.631878 3,3 0 0 0 -5.348939,2.718244"
           id="Sketch_w0000"
           inkscape:connector-curvature="0" />
        <circle
           d="m -8.4247928,5.238955 c 0,0.086425 -0.070061,0.156486 -0.156486,0.156486 -0.086425,0 -0.156486,-0.070061 -0.156486,-0.156486 0,-0.086425 0.070061,-0.156486 0.156486,-0.156486 0.086425,0 0.156486,0.070061 0.156486,0.156486 z"
           id="circle3430"
           style="fill:none;stroke:#000000;stroke-width:0.02;stroke-miterlimit:4;stroke-opacity:1;stroke-dasharray:none"
           r="0.156486"
           cy="5.238955"
           cx="-8.5812788"
           sodipodi:cx="-8.5812788"
           sodipodi:cy="5.238955"
           sodipodi:rx="0.156486"
           sodipodi:ry="0.156486" />
        <title
           id="title3432">Sketch</title>
      </g>
      <path
         sodipodi:open="true"
         sodipodi:end="4.712389"
         sodipodi:start="0"
         transform="matrix(0.52058737,-0.51992013,0.51805814,0.52250898,547.19344,844.02297)"
         d="m 98.489876,661.76703 c 0,3.90524 -3.165825,7.07107 -7.071068,7.07107 -3.905243,0 -7.071068,-3.16583 -7.071068,-7.07107 0,-3.90524 3.165825,-7.07107 7.071068,-7.07107 0,0 0,0 0,0"
         sodipodi:ry="7.0710678"
         sodipodi:rx="7.0710678"
         sodipodi:cy="661.76703"
         sodipodi:cx="91.418808"
         id="path3469"
         style="fill:none;stroke:#000000;stroke-width:0.09631535;stroke-miterlimit:4;stroke-opacity:1;stroke-dasharray:none"
         sodipodi:type="arc" />
      <path
         inkscape:connector-curvature="0"
         id="path4247"
         d="m 933.95812,1138.5725 7.34375,0.023"
         style="fill:none;stroke:#000000;stroke-width:0.07086614;stroke-linecap:butt;stroke-linejoin:miter;stroke-miterlimit:4;stroke-opacity:1;stroke-dasharray:none" />
    </g>
    <g
       id="g4269"
       transform="translate(-652.94838,-372.53944)"
       style="fill:none;stroke:#000000;stroke-width:0.07086614;stroke-miterlimit:4;stroke-opacity:1;stroke-dasharray:none">
      <g
         id="g4249"
         transform="matrix(3.5433073,0,0,-3.5433073,966.61641,963.13175)"
         style="fill:none;stroke:#000000;stroke-width:0.02;stroke-miterlimit:4;stroke-opacity:1;stroke-dasharray:none">
        <path
           inkscape:connector-curvature="0"
           id="path4251"
           d="m -21.369729,-13.304129 a 3,3 0 0 1 -0.395329,3.3098963 l -3.901548,4.5582807 a 3,3 0 0 1 -3.209231,0.901406 3,3 0 0 0 -1.860182,5.70436 3,3 0 0 1 2.06091,2.6199892 l 0.46438,5.9820028 a 3,3 0 0 1 -1.631878,2.90666 3,3 0 0 0 2.718244,5.348939 3,3 0 0 1 3.309896,0.395329 l 4.558281,3.901548 a 3,3 0 0 1 0.901406,3.209231 3,3 0 1 0 5.70436,1.860182 3,3 0 0 1 2.61999,-2.06091 l 5.9820024,-0.46438 a 3,3 0 0 1 2.9066593,1.631878 3,3 0 1 0 5.3489389,-2.718244 3,3 0 0 1 0.3953293,-3.309896 l 3.9015478,-4.558281 a 3,3 0 0 1 3.2092313,-0.901406 3,3 0 1 0 1.860182,-5.70436 3,3 0 0 1 -2.06091,-2.6199904 L 11.048171,0.70610432 A 3,3 0 0 1 12.680049,-2.2005557 3,3 0 1 0 9.961805,-7.5494946 3,3 0 0 1 6.6519085,-7.9448239 L 2.0936276,-11.846372 a 3,3 0 0 1 -0.9014056,-3.209231 3,3 0 0 0 -5.70436,-1.860182 3,3 0 0 1 -2.6199901,2.06091 l -5.9820019,0.46438 a 3,3 0 0 1 -2.90666,-1.631878 3,3 0 0 0 -5.348939,2.718244"
           style="fill:none;stroke:#000000;stroke-width:0.02;stroke-miterlimit:4;stroke-opacity:1;stroke-dasharray:none" />
        <circle
           sodipodi:ry="0.156486"
           sodipodi:rx="0.156486"
           sodipodi:cy="5.238955"
           sodipodi:cx="-8.5812788"
           cx="-8.5812788"
           cy="5.238955"
           r="0.156486"
           style="fill:none;stroke:#000000;stroke-width:0.02;stroke-miterlimit:4;stroke-opacity:1;stroke-dasharray:none"
           id="circle4253"
           d="m -8.4247928,5.238955 c 0,0.086425 -0.070061,0.156486 -0.156486,0.156486 -0.086425,0 -0.156486,-0.070061 -0.156486,-0.156486 0,-0.086425 0.070061,-0.156486 0.156486,-0.156486 0.086425,0 0.156486,0.070061 0.156486,0.156486 z" />
        <title
           id="title4255">Sketch</title>
      </g>
      <path
         sodipodi:type="arc"
         style="fill:none;stroke:#000000;stroke-width:0.09631535;stroke-miterlimit:4;stroke-opacity:1;stroke-dasharray:none"
         id="path4257"
         sodipodi:cx="91.418808"
         sodipodi:cy="661.76703"
         sodipodi:rx="7.0710678"
         sodipodi:ry="7.0710678"
         d="m 98.489876,661.76703 c 0,3.90524 -3.165825,7.07107 -7.071068,7.07107 -3.905243,0 -7.071068,-3.16583 -7.071068,-7.07107 0,-3.90524 3.165825,-7.07107 7.071068,-7.07107 0,0 0,0 0,0"
         transform="matrix(0.52058737,-0.51992013,0.51805814,0.52250898,545.77923,646.03308)"
         sodipodi:start="0"
         sodipodi:end="4.712389"
         sodipodi:open="true" />
      <path
         style="fill:none;stroke:#000000;stroke-width:0.07086614;stroke-linecap:butt;stroke-linejoin:miter;stroke-miterlimit:4;stroke-opacity:1;stroke-dasharray:none"
         d="m 932.54391,940.58257 7.34375,0.0234"
         id="path4259"
         inkscape:connector-curvature="0" />
    </g>
    <g
       id="Sketch-0"
       transform="matrix(3.5433073,0,0,-3.5433073,127.84854,418.5653)"
       style="fill:none;stroke:#000000;stroke-width:0.02;stroke-miterlimit:4;stroke-opacity:1;stroke-dasharray:none">
      <path
         inkscape:connector-curvature="0"
         id="Sketch_w0000-9"
         d="m -21.369729,-13.304129 a 3,3 0 0 1 -0.395329,3.3098963 l -3.901548,4.5582807 a 3,3 0 0 1 -3.209231,0.901406 3,3 0 0 0 -1.860182,5.70436 3,3 0 0 1 2.06091,2.6199892 l 0.46438,5.9820028 a 3,3 0 0 1 -1.631878,2.90666 3,3 0 0 0 2.718244,5.348939 3,3 0 0 1 3.309896,0.395329 l 4.558281,3.901548 a 3,3 0 0 1 0.901406,3.209231 3,3 0 1 0 5.70436,1.860182 3,3 0 0 1 2.61999,-2.06091 l 5.9820024,-0.46438 a 3,3 0 0 1 2.9066593,1.631878 3,3 0 1 0 5.3489389,-2.718244 3,3 0 0 1 0.3953293,-3.309896 l 3.9015478,-4.558281 a 3,3 0 0 1 3.2092313,-0.901406 3,3 0 1 0 1.860182,-5.70436 3,3 0 0 1 -2.06091,-2.6199904 L 11.048171,0.70610432 A 3,3 0 0 1 12.680049,-2.2005557 3,3 0 1 0 9.961805,-7.5494946 3,3 0 0 1 6.6519085,-7.9448239 L 2.0936276,-11.846372 a 3,3 0 0 1 -0.9014056,-3.209231 3,3 0 0 0 -5.70436,-1.860182 3,3 0 0 1 -2.6199901,2.06091 l -5.9820019,0.46438 a 3,3 0 0 1 -2.90666,-1.631878 3,3 0 0 0 -5.348939,2.718244"
         style="fill:none;stroke:#000000;stroke-width:0.02;stroke-miterlimit:4;stroke-opacity:1;stroke-dasharray:none" />
      <circle
         sodipodi:ry="2"
         sodipodi:rx="2"
         sodipodi:cy="5.238955"
         sodipodi:cx="-8.5812788"
         cx="-8.5812788"
         cy="5.238955"
         r="2"
         style="fill:none;stroke:#000000;stroke-width:0.02;stroke-miterlimit:4;stroke-opacity:1;stroke-dasharray:none"
         id="circle4380"
         d="m -6.5812788,5.238955 c 0,1.1045695 -0.8954305,2 -2,2 -1.1045695,0 -2.0000002,-0.8954305 -2.0000002,-2 0,-1.1045695 0.8954307,-2 2.0000002,-2 1.1045695,0 2,0.8954305 2,2 z" />
      <title
         id="title4382">Sketch</title>
    </g>
    <g
       style="fill:none;stroke:#000000;stroke-width:0.02;stroke-miterlimit:4;stroke-opacity:1;stroke-dasharray:none"
       transform="matrix(3.5433073,0,0,-3.5433073,129.76997,593.92122)"
       id="g4533">
      <path
         style="fill:none;stroke:#000000;stroke-width:0.02;stroke-miterlimit:4;stroke-opacity:1;stroke-dasharray:none"
         d="m -21.369729,-13.304129 a 3,3 0 0 1 -0.395329,3.3098963 l -3.901548,4.5582807 a 3,3 0 0 1 -3.209231,0.901406 3,3 0 0 0 -1.860182,5.70436 3,3 0 0 1 2.06091,2.6199892 l 0.46438,5.9820028 a 3,3 0 0 1 -1.631878,2.90666 3,3 0 0 0 2.718244,5.348939 3,3 0 0 1 3.309896,0.395329 l 4.558281,3.901548 a 3,3 0 0 1 0.901406,3.209231 3,3 0 1 0 5.70436,1.860182 3,3 0 0 1 2.61999,-2.06091 l 5.9820024,-0.46438 a 3,3 0 0 1 2.9066593,1.631878 3,3 0 1 0 5.3489389,-2.718244 3,3 0 0 1 0.3953293,-3.309896 l 3.9015478,-4.558281 a 3,3 0 0 1 3.2092313,-0.901406 3,3 0 1 0 1.860182,-5.70436 3,3 0 0 1 -2.06091,-2.6199904 L 11.048171,0.70610432 A 3,3 0 0 1 12.680049,-2.2005557 3,3 0 1 0 9.961805,-7.5494946 3,3 0 0 1 6.6519085,-7.9448239 L 2.0936276,-11.846372 a 3,3 0 0 1 -0.9014056,-3.209231 3,3 0 0 0 -5.70436,-1.860182 3,3 0 0 1 -2.6199901,2.06091 l -5.9820019,0.46438 a 3,3 0 0 1 -2.90666,-1.631878 3,3 0 0 0 -5.348939,2.718244"
         id="path4535"
         inkscape:connector-curvature="0" />
      <circle
         d="m -6.5812788,5.238955 c 0,1.1045695 -0.8954305,2 -2,2 -1.1045695,0 -2.0000002,-0.8954305 -2.0000002,-2 0,-1.1045695 0.8954307,-2 2.0000002,-2 1.1045695,0 2,0.8954305 2,2 z"
         id="circle4537"
         style="fill:none;stroke:#000000;stroke-width:0.02;stroke-miterlimit:4;stroke-opacity:1;stroke-dasharray:none"
         r="2"
         cy="5.238955"
         cx="-8.5812788"
         sodipodi:cx="-8.5812788"
         sodipodi:cy="5.238955"
         sodipodi:rx="2"
         sodipodi:ry="2" />
      <title
         id="title4539">Sketch</title>
    </g>
    <g
       style="fill:none;stroke:#000000;stroke-width:0.02;stroke-miterlimit:4;stroke-opacity:1;stroke-dasharray:none"
       transform="matrix(3.5433073,0,0,-3.5433073,475.07898,421.40138)"
       id="g4541">
      <path
         style="fill:none;stroke:#000000;stroke-width:0.02;stroke-miterlimit:4;stroke-opacity:1;stroke-dasharray:none"
         d="m -21.369729,-13.304129 a 3,3 0 0 1 -0.395329,3.3098963 l -3.901548,4.5582807 a 3,3 0 0 1 -3.209231,0.901406 3,3 0 0 0 -1.860182,5.70436 3,3 0 0 1 2.06091,2.6199892 l 0.46438,5.9820028 a 3,3 0 0 1 -1.631878,2.90666 3,3 0 0 0 2.718244,5.348939 3,3 0 0 1 3.309896,0.395329 l 4.558281,3.901548 a 3,3 0 0 1 0.901406,3.209231 3,3 0 1 0 5.70436,1.860182 3,3 0 0 1 2.61999,-2.06091 l 5.9820024,-0.46438 a 3,3 0 0 1 2.9066593,1.631878 3,3 0 1 0 5.3489389,-2.718244 3,3 0 0 1 0.3953293,-3.309896 l 3.9015478,-4.558281 a 3,3 0 0 1 3.2092313,-0.901406 3,3 0 1 0 1.860182,-5.70436 3,3 0 0 1 -2.06091,-2.6199904 L 11.048171,0.70610432 A 3,3 0 0 1 12.680049,-2.2005557 3,3 0 1 0 9.961805,-7.5494946 3,3 0 0 1 6.6519085,-7.9448239 L 2.0936276,-11.846372 a 3,3 0 0 1 -0.9014056,-3.209231 3,3 0 0 0 -5.70436,-1.860182 3,3 0 0 1 -2.6199901,2.06091 l -5.9820019,0.46438 a 3,3 0 0 1 -2.90666,-1.631878 3,3 0 0 0 -5.348939,2.718244"
         id="path4543"
         inkscape:connector-curvature="0" />
      <circle
         d="m -6.5812788,5.238955 c 0,1.1045695 -0.8954305,2 -2,2 -1.1045695,0 -2.0000002,-0.8954305 -2.0000002,-2 0,-1.1045695 0.8954307,-2 2.0000002,-2 1.1045695,0 2,0.8954305 2,2 z"
         id="circle4545"
         style="fill:none;stroke:#000000;stroke-width:0.02;stroke-miterlimit:4;stroke-opacity:1;stroke-dasharray:none"
         r="2"
         cy="5.238955"
         cx="-8.5812788"
         sodipodi:cx="-8.5812788"
         sodipodi:cy="5.238955"
         sodipodi:rx="2"
         sodipodi:ry="2" />
      <title
         id="title4547">Sketch</title>
    </g>
    <g
       id="g4549"
       transform="matrix(3.5433073,0,0,-3.5433073,299.61366,417.47089)"
       style="fill:none;stroke:#000000;stroke-width:0.02;stroke-miterlimit:4;stroke-opacity:1;stroke-dasharray:none">
      <path
         inkscape:connector-curvature="0"
         id="path4551"
         d="m -21.369729,-13.304129 a 3,3 0 0 1 -0.395329,3.3098963 l -3.901548,4.5582807 a 3,3 0 0 1 -3.209231,0.901406 3,3 0 0 0 -1.860182,5.70436 3,3 0 0 1 2.06091,2.6199892 l 0.46438,5.9820028 a 3,3 0 0 1 -1.631878,2.90666 3,3 0 0 0 2.718244,5.348939 3,3 0 0 1 3.309896,0.395329 l 4.558281,3.901548 a 3,3 0 0 1 0.901406,3.209231 3,3 0 1 0 5.70436,1.860182 3,3 0 0 1 2.61999,-2.06091 l 5.9820024,-0.46438 a 3,3 0 0 1 2.9066593,1.631878 3,3 0 1 0 5.3489389,-2.718244 3,3 0 0 1 0.3953293,-3.309896 l 3.9015478,-4.558281 a 3,3 0 0 1 3.2092313,-0.901406 3,3 0 1 0 1.860182,-5.70436 3,3 0 0 1 -2.06091,-2.6199904 L 11.048171,0.70610432 A 3,3 0 0 1 12.680049,-2.2005557 3,3 0 1 0 9.961805,-7.5494946 3,3 0 0 1 6.6519085,-7.9448239 L 2.0936276,-11.846372 a 3,3 0 0 1 -0.9014056,-3.209231 3,3 0 0 0 -5.70436,-1.860182 3,3 0 0 1 -2.6199901,2.06091 l -5.9820019,0.46438 a 3,3 0 0 1 -2.90666,-1.631878 3,3 0 0 0 -5.348939,2.718244"
         style="fill:none;stroke:#000000;stroke-width:0.02;stroke-miterlimit:4;stroke-opacity:1;stroke-dasharray:none" />
      <circle
         sodipodi:ry="2"
         sodipodi:rx="2"
         sodipodi:cy="5.238955"
         sodipodi:cx="-8.5812788"
         cx="-8.5812788"
         cy="5.238955"
         r="2"
         style="fill:none;stroke:#000000;stroke-width:0.02;stroke-miterlimit:4;stroke-opacity:1;stroke-dasharray:none"
         id="circle4553"
         d="m -6.5812788,5.238955 c 0,1.1045695 -0.8954305,2 -2,2 -1.1045695,0 -2.0000002,-0.8954305 -2.0000002,-2 0,-1.1045695 0.8954307,-2 2.0000002,-2 1.1045695,0 2,0.8954305 2,2 z" />
      <title
         id="title4555">Sketch</title>
    </g>
  </g>
</svg>
