<?xml version="1.0"?>
<!DOCTYPE svg PUBLIC "-//W3C//DTD SVG 1.1//EN" "http://www.w3.org/Graphics/SVG/1.1/DTD/svg11.dtd">
<svg width="49.9225240916mm" height="49.9225240916mm" viewBox="0 0 49.9225240916 49.9225240916" xmlns="http://www.w3.org/2000/svg" version="1.1">
<g id="Sketch" transform="translate(33.542541,30.200217) scale(1,-1)">
<path id="Sketch_w0000" d="M -21.3697286122 -13.3041289744 A 3.0 3.0 0 0 1 -21.7650577692 -9.99423264583 L -25.6666057925 -5.43595194218 A 3.0 3.0 0 0 1 -28.8758370044 -4.53454601925 A 3.0 3.0 0 1 0 -30.7360188641 1.16981401925 A 3.0 3.0 0 0 1 -28.6751086716 3.78980384464 L -28.2107285272 9.77180626863 A 3.0 3.0 0 0 1 -29.8426074327 12.6784657394 A 3.0 3.0 0 0 0 -27.1243629744 18.0274046122 A 3.0 3.0 0 0 1 -23.8144666727 18.4227337463 L -19.2561858869 22.3242818398 A 3.0 3.0 0 0 1 -18.3547800192 25.5335130044 A 3.0 3.0 0 1 0 -12.6504199808 27.3936948641 A 3.0 3.0 0 0 1 -10.0304298386 25.332784647 L -4.04842764551 24.8684045205 A 3.0 3.0 0 0 1 -1.14176826057 26.5002834327 A 3.0 3.0 0 1 0 4.20717061222 23.7820389744 A 3.0 3.0 0 0 1 4.60249962627 20.4721428129 L 8.504047829 15.9138618995 A 3.0 3.0 0 0 1 11.7132790044 15.0124560192 A 3.0 3.0 0 0 0 13.5734608641 9.30809598075 A 3.0 3.0 0 0 1 11.512550665 6.68810607084 L 11.0481705369 0.706103856949 A 3.0 3.0 0 0 1 12.6800494327 -2.20055573943 A 3.0 3.0 0 1 0 9.96180497441 -7.54949461222 A 3.0 3.0 0 0 1 6.65190876988 -7.94482366308 L 2.09362793302 -11.8463718003 A 3.0 3.0 0 0 1 1.19222201925 -15.0556030044 A 3.0 3.0 0 0 0 -4.51213801925 -16.9157848641 A 3.0 3.0 0 0 1 -7.13212787078 -14.8548746696 L -13.114130328 -14.3904945226 A 3.0 3.0 0 0 1 -16.0207897394 -16.0223734327 A 3.0 3.0 0 1 0 -21.3697286122 -13.3041289744 " stroke="#000000" stroke-width="0.35 px" style="stroke-width:0.35;stroke-miterlimit:4;stroke-dasharray:none;fill:none;fill-rule: evenodd "/>
<title>Sketch</title>
</g>
</svg>