<?xml version="1.0"?>
<!DOCTYPE svg PUBLIC "-//W3C//DTD SVG 1.1//EN" "http://www.w3.org/Graphics/SVG/1.1/DTD/svg11.dtd">
<svg width="18.6434322569mm" height="28.0354305259mm" viewBox="0 0 18.6434322569 28.0354305259" xmlns="http://www.w3.org/2000/svg" version="1.1">
<g id="Sketch" transform="translate(3.321716,5.082779) scale(1,-1)">
<circle cx="0.0" cy="0.0" r="0.55" stroke="#000000" stroke-width="0.35 px" style="stroke-width:0.35;stroke-miterlimit:4;stroke-dasharray:none;fill:none"/>
<circle cx="6.0" cy="-4.3004979785e-17" r="0.55" stroke="#000000" stroke-width="0.35 px" style="stroke-width:0.35;stroke-miterlimit:4;stroke-dasharray:none;fill:none"/>
<path id="Sketch_w0002" d="M 6.0 -2.9 L -7.10449890361e-16 -2.9 A 2.9 2.9 0 0 0 3.55302318608e-16 2.9 L 0.5 2.9 L 1.5 4.9 L 4.5 4.9 L 5.5 2.9 L 6.0 2.9 A 2.9 2.9 0 1 0 6.0 -2.9 " stroke="#000000" stroke-width="0.35 px" style="stroke-width:0.35;stroke-miterlimit:4;stroke-dasharray:none;fill:none;fill-rule: evenodd "/>
<circle cx="-4.84267684744e-27" cy="-8.33948" r="0.55" stroke="#000000" stroke-width="0.35 px" style="stroke-width:0.35;stroke-miterlimit:4;stroke-dasharray:none;fill:none"/>
<circle cx="12.0" cy="-8.33948" r="0.55" stroke="#000000" stroke-width="0.35 px" style="stroke-width:0.35;stroke-miterlimit:4;stroke-dasharray:none;fill:none"/>
<path id="Sketch_w0005" d="M 2.5 -11.23948 L -4.88405285436e-16 -11.23948 A 2.9 2.9 0 0 0 -5.32876101092e-16 -5.43948 L 3.5 -5.43948 L 4.5 -3.43948 L 7.5 -3.43948 L 8.5 -5.43948 L 12.0 -5.43948 A 2.9 2.9 0 0 0 12.0 -11.23948 L 9.5 -11.23948 L 7.5 -14.23948 L 4.5 -14.23948 L 2.5 -11.23948 " stroke="#000000" stroke-width="0.35 px" style="stroke-width:0.35;stroke-miterlimit:4;stroke-dasharray:none;fill:none;fill-rule: evenodd "/>
<circle cx="-2.7581925535e-33" cy="-19.6309356498" r="0.4" stroke="#000000" stroke-width="0.35 px" style="stroke-width:0.35;stroke-miterlimit:4;stroke-dasharray:none;fill:none"/>
<circle cx="12.0" cy="-19.6309356498" r="0.4" stroke="#000000" stroke-width="0.35 px" style="stroke-width:0.35;stroke-miterlimit:4;stroke-dasharray:none;fill:none"/>
<path id="Sketch_w0008" d="M 1.77573785876e-16 -16.7309356498 A 2.9 2.9 0 0 1 -5.32721357629e-16 -22.5309356498 L 11.9999999568 -22.5309356498 A 2.9 2.9 0 1 1 12.0 -16.7309356498 L 8.5 -16.7309356498 L 7.5 -14.7309356498 L 4.5 -14.7309356498 L 3.5 -16.7309356498 L 0.0 -16.7309356498 " stroke="#000000" stroke-width="0.35 px" style="stroke-width:0.35;stroke-miterlimit:4;stroke-dasharray:none;fill:none;fill-rule: evenodd "/>
<title>Sketch</title>
</g>
</svg>