<?xml version="1.0"?>
<!DOCTYPE svg PUBLIC "-//W3C//DTD SVG 1.1//EN" "http://www.w3.org/Graphics/SVG/1.1/DTD/svg11.dtd">
<svg width="129.839487516mm" height="81.2593641348mm" viewBox="0 0 129.839487516 81.2593641348" xmlns="http://www.w3.org/2000/svg" version="1.1">
<g id="Sketch" transform="translate(4.411874,6.172936) scale(1,-1)">
<circle cx="0.0" cy="0.0" r="0.5" stroke="#000000" stroke-width="0.35 px" style="stroke-width:0.35;stroke-miterlimit:4;stroke-dasharray:none;fill:none"/>
<circle cx="6.0" cy="2.06001023282e-16" r="0.5" stroke="#000000" stroke-width="0.35 px" style="stroke-width:0.35;stroke-miterlimit:4;stroke-dasharray:none;fill:none"/>
<path id="Sketch_w0002" d="M 6.0 -2.9 L -7.10449890361e-16 -2.9 A 2.9 2.9 0 0 0 3.55302318608e-16 2.9 L 0.5 2.9 L 1.5 4.9 L 4.5 4.9 L 5.5 2.9 L 6.0 2.9 A 2.9 2.9 0 0 0 6.0 -2.9 " stroke="#000000" stroke-width="0.35 px" style="stroke-width:0.35;stroke-miterlimit:4;stroke-dasharray:none;fill:none;fill-rule: evenodd "/>
<circle cx="3.59544322686e-25" cy="-25.570756" r="0.5" stroke="#000000" stroke-width="0.35 px" style="stroke-width:0.35;stroke-miterlimit:4;stroke-dasharray:none;fill:none"/>
<circle cx="12.0" cy="-25.570756" r="0.5" stroke="#000000" stroke-width="0.35 px" style="stroke-width:0.35;stroke-miterlimit:4;stroke-dasharray:none;fill:none"/>
<path id="Sketch_w0005" d="M 2.5 -28.470756 L -4.88405285436e-16 -28.470756 A 2.9 2.9 0 1 0 4.44398717134e-17 -22.670756 L 3.5 -22.670756 L 4.5 -20.670756 L 7.5 -20.670756 L 8.5 -22.670756 L 12.0 -22.670756 A 2.9 2.9 0 0 0 12.0 -28.470756 L 9.5 -28.470756 L 7.5 -31.470756 L 4.5 -31.470756 L 2.5 -28.470756 " stroke="#000000" stroke-width="0.35 px" style="stroke-width:0.35;stroke-miterlimit:4;stroke-dasharray:none;fill:none;fill-rule: evenodd "/>
<circle cx="6.44774681928e-33" cy="-55.21187" r="0.5" stroke="#000000" stroke-width="0.35 px" style="stroke-width:0.35;stroke-miterlimit:4;stroke-dasharray:none;fill:none"/>
<circle cx="12.0" cy="-55.21187" r="0.5" stroke="#000000" stroke-width="0.35 px" style="stroke-width:0.35;stroke-miterlimit:4;stroke-dasharray:none;fill:none"/>
<path id="Sketch_w0008" d="M 1.77573785876e-16 -52.31187 A 2.9 2.9 0 0 1 -5.32721357629e-16 -58.11187 L 11.999999947 -58.11187 A 2.9 2.9 0 1 1 12.0 -52.31187 L 8.5 -52.31187 L 7.5 -50.31187 L 4.5 -50.31187 L 3.5 -52.31187 L 0.0 -52.31187 " stroke="#000000" stroke-width="0.35 px" style="stroke-width:0.35;stroke-miterlimit:4;stroke-dasharray:none;fill:none;fill-rule: evenodd "/>
<circle cx="99.133141" cy="-48.791955" r="23.1168857497" stroke="#000000" stroke-width="0.35 px" style="stroke-width:0.35;stroke-miterlimit:4;stroke-dasharray:none;fill:none"/>
<path id="Sketch_w0010" d="M 83.4402389252 -31.8177619046 A 3.0 3.0 0 0 1 87.1723483888 -32.5808025141 L 92.4770739383 -29.7772554364 A 3.0 3.0 0 0 1 93.9490769628 -26.2638417451 A 3.11909948997 3.11909948997 0 1 0 100.039150569 -25.6928304836 " stroke="#000000" stroke-width="0.35 px" style="stroke-width:0.35;stroke-miterlimit:4;stroke-dasharray:none;fill:none;fill-rule: evenodd "/>
<title>Sketch</title>
</g>
</svg>