<?xml version="1.0" encoding="UTF-8" standalone="no"?>
<!-- Created with Inkscape (http://www.inkscape.org/) -->

<svg
   xmlns:dc="http://purl.org/dc/elements/1.1/"
   xmlns:cc="http://creativecommons.org/ns#"
   xmlns:rdf="http://www.w3.org/1999/02/22-rdf-syntax-ns#"
   xmlns:svg="http://www.w3.org/2000/svg"
   xmlns="http://www.w3.org/2000/svg"
   xmlns:sodipodi="http://sodipodi.sourceforge.net/DTD/sodipodi-0.dtd"
   xmlns:inkscape="http://www.inkscape.org/namespaces/inkscape"
   width="210mm"
   height="297mm"
   viewBox="0 0 744.09448819 1052.3622047"
   id="svg4917"
   version="1.1"
   inkscape:version="0.91 r13725"
   sodipodi:docname="sprocket_set.svg">
  <defs
     id="defs4919" />
  <sodipodi:namedview
     id="base"
     pagecolor="#ffffff"
     bordercolor="#666666"
     borderopacity="1.0"
     inkscape:pageopacity="0.0"
     inkscape:pageshadow="2"
     inkscape:zoom="0.98994949"
     inkscape:cx="316.41814"
     inkscape:cy="777.45787"
     inkscape:document-units="px"
     inkscape:current-layer="layer1"
     showgrid="false"
     inkscape:window-width="1362"
     inkscape:window-height="729"
     inkscape:window-x="0"
     inkscape:window-y="18"
     inkscape:window-maximized="0" />
  <metadata
     id="metadata4922">
    <rdf:RDF>
      <cc:Work
         rdf:about="">
        <dc:format>image/svg+xml</dc:format>
        <dc:type
           rdf:resource="http://purl.org/dc/dcmitype/StillImage" />
        <dc:title></dc:title>
      </cc:Work>
    </rdf:RDF>
  </metadata>
  <g
     inkscape:label="Layer 1"
     inkscape:groupmode="layer"
     id="layer1">
    <g
       id="Sketch"
       transform="matrix(3.5433073,0,0,-3.5433073,459.03191,107.65199)"
       style="fill:none;stroke:#000000;stroke-opacity:1;stroke-width:0.02;stroke-miterlimit:4;stroke-dasharray:none">
      <path
         inkscape:connector-curvature="0"
         id="Sketch_w0000"
         d="m -21.369729,-13.304129 a 3,3 0 0 1 -0.395329,3.3098963 l -3.901548,4.5582806 a 3,3 0 0 1 -3.209231,0.9014061 3,3 0 1 0 -1.860182,5.70436 3,3 0 0 1 2.06091,2.6199901 l 0.46438,5.9820018 a 3,3 0 0 1 -1.631878,2.9066601 3,3 0 0 0 2.718244,5.348939 3,3 0 0 1 3.309896,0.395329 l 4.558281,3.901548 a 3,3 0 0 1 0.901406,3.209231 3,3 0 0 0 5.70436,1.860182 3,3 0 0 1 2.61999,-2.06091 l 5.9820024,-0.46438 a 3,3 0 0 1 2.9066593,1.631878 3,3 0 0 0 5.3489389,-2.718244 3,3 0 0 1 0.3953292,-3.309896 l 3.901548,-4.558281 a 3,3 0 0 1 3.2092312,-0.901406 3,3 0 0 0 1.860182,-5.70436 3,3 0 0 1 -2.06091,-2.61999 L 11.048171,0.70610412 A 3,3 0 0 1 12.680049,-2.2005557 3,3 0 0 0 9.961805,-7.5494946 3,3 0 0 1 6.6519088,-7.9448236 L 2.0936279,-11.846372 a 3,3 0 0 1 -0.9014059,-3.209231 3,3 0 0 0 -5.70436,-1.860182 3,3 0 0 1 -2.6199901,2.06091 l -5.9820029,0.464381 a 3,3 0 0 1 -2.906659,-1.631879 3,3 0 1 0 -5.348939,2.718244"
         style="fill:none;fill-rule:evenodd;stroke:#000000;stroke-width:0.02;stroke-miterlimit:4;stroke-dasharray:none;stroke-opacity:1" />
      <circle
         cx="-8.5812788"
         cy="5.238955"
         r="2"
         style="fill:none;stroke:#000000;stroke-width:0.02;stroke-miterlimit:4;stroke-dasharray:none;stroke-opacity:1"
         id="circle4367" />
      <title
         id="title4369">Sketch</title>
    </g>
    <g
       id="Sketch-4"
       transform="matrix(3.5433073,0,0,-3.5433073,119.11091,107.889)"
       style="fill:none;stroke:#000000;stroke-opacity:1;stroke-width:0.02;stroke-miterlimit:4;stroke-dasharray:none">
      <path
         inkscape:connector-curvature="0"
         id="Sketch_w0000-5"
         d="m -21.369729,-13.304129 a 3,3 0 0 1 -0.395329,3.3098963 l -3.901548,4.5582806 a 3,3 0 0 1 -3.209231,0.9014061 3,3 0 1 0 -1.860182,5.70436 3,3 0 0 1 2.06091,2.6199901 l 0.46438,5.9820018 a 3,3 0 0 1 -1.631878,2.9066601 3,3 0 1 0 2.718244,5.348939 3,3 0 0 1 3.309896,0.395329 l 4.558281,3.901548 a 3,3 0 0 1 0.901406,3.209231 3,3 0 1 0 5.70436,1.860182 3,3 0 0 1 2.61999,-2.06091 l 5.9820024,-0.46438 a 3,3 0 0 1 2.9066593,1.631878 3,3 0 1 0 5.3489389,-2.718244 3,3 0 0 1 0.3953292,-3.309896 l 3.901548,-4.558281 a 3,3 0 0 1 3.2092312,-0.901406 3,3 0 0 0 1.860182,-5.70436 3,3 0 0 1 -2.06091,-2.61999 L 11.048171,0.70610412 A 3,3 0 0 1 12.680049,-2.2005557 3,3 0 1 0 9.961805,-7.5494946 3,3 0 0 1 6.6519088,-7.9448236 L 2.0936279,-11.846372 a 3,3 0 0 1 -0.9014059,-3.209231 3,3 0 0 0 -5.70436,-1.860182 3,3 0 0 1 -2.6199901,2.06091 l -5.9820029,0.464381 a 3,3 0 0 1 -2.906659,-1.631879 3,3 0 1 0 -5.348939,2.718244"
         style="fill:none;fill-rule:evenodd;stroke:#000000;stroke-width:0.02;stroke-miterlimit:4;stroke-dasharray:none;stroke-opacity:1" />
      <path
         inkscape:connector-curvature="0"
         id="Sketch_w0001"
         d="m -9.5404453,6.188955 a 1.35,1.35 0 1 1 1.9183326,0 l -1.9183326,0"
         style="fill:none;fill-rule:evenodd;stroke:#000000;stroke-width:0.02;stroke-miterlimit:4;stroke-dasharray:none;stroke-opacity:1" />
      <title
         id="title4306">Sketch</title>
    </g>
    <g
       id="Sketch-44"
       transform="matrix(3.5433073,0,0,-3.5433073,297.22908,266.52289)"
       style="fill:none;stroke:#000000;stroke-opacity:1;stroke-width:0.02;stroke-miterlimit:4;stroke-dasharray:none">
      <path
         inkscape:connector-curvature="0"
         id="Sketch_w0000-8"
         d="m -21.369729,-13.304129 a 3,3 0 0 1 -0.395329,3.3098963 l -3.901548,4.5582806 a 3,3 0 0 1 -3.209231,0.9014061 3,3 0 1 0 -1.860182,5.70436 3,3 0 0 1 2.06091,2.6199901 l 0.46438,5.9820018 a 3,3 0 0 1 -1.631878,2.9066601 3,3 0 0 0 2.718244,5.348939 3,3 0 0 1 3.309896,0.395329 l 4.558281,3.901548 a 3,3 0 0 1 0.901406,3.209231 3,3 0 1 0 5.70436,1.860182 3,3 0 0 1 2.61999,-2.06091 l 5.9820024,-0.46438 a 3,3 0 0 1 2.9066593,1.631878 3,3 0 0 0 5.3489389,-2.718244 3,3 0 0 1 0.3953292,-3.309896 l 3.901548,-4.558281 a 3,3 0 0 1 3.2092312,-0.901406 3,3 0 1 0 1.860182,-5.70436 3,3 0 0 1 -2.06091,-2.61999 L 11.048171,0.70610412 A 3,3 0 0 1 12.680049,-2.2005557 3,3 0 1 0 9.961805,-7.5494946 3,3 0 0 1 6.6519088,-7.9448236 L 2.0936279,-11.846372 a 3,3 0 0 1 -0.9014059,-3.209231 3,3 0 0 0 -5.70436,-1.860182 3,3 0 0 1 -2.6199901,2.06091 l -5.9820029,0.464381 a 3,3 0 0 1 -2.906659,-1.631879 3,3 0 1 0 -5.348939,2.718244"
         style="fill:none;fill-rule:evenodd;stroke:#000000;stroke-width:0.02;stroke-miterlimit:4;stroke-dasharray:none;stroke-opacity:1" />
      <circle
         cx="-8.5812788"
         cy="5.238955"
         r="9"
         style="fill:none;stroke:#000000;stroke-width:0.02;stroke-miterlimit:4;stroke-dasharray:none;stroke-opacity:1"
         id="circle5566" />
      <title
         id="title5568">Sketch</title>
    </g>
    <g
       id="Sketch-6"
       transform="matrix(3.5433071,0,0,-3.5433068,178.19207,347.51362)"
       style="fill:none;stroke:#000000;stroke-opacity:1;stroke-width:0.02;stroke-miterlimit:4;stroke-dasharray:none">
      <circle
         cx="0"
         cy="0"
         r="9"
         style="fill:none;stroke:#000000;stroke-width:0.02;stroke-miterlimit:4;stroke-dasharray:none;stroke-opacity:1"
         id="circle6193" />
      <circle
         cx="0"
         cy="0"
         r="13"
         style="fill:none;stroke:#000000;stroke-width:0.02;stroke-miterlimit:4;stroke-dasharray:none;stroke-opacity:1"
         id="circle6195" />
      <title
         id="title6197">Sketch</title>
    </g>
    <g
       id="Sketch-4-6"
       transform="matrix(3.5433073,0,0,-3.5433073,128.3909,265.83386)"
       style="fill:none;stroke:#000000;stroke-opacity:1;stroke-width:0.02;stroke-miterlimit:4;stroke-dasharray:none">
      <path
         inkscape:connector-curvature="0"
         id="Sketch_w0000-5-2"
         d="m -21.369729,-13.304129 a 3,3 0 0 1 -0.395329,3.3098963 l -3.901548,4.5582806 a 3,3 0 0 1 -3.209231,0.9014061 3,3 0 1 0 -1.860182,5.70436 3,3 0 0 1 2.06091,2.6199901 l 0.46438,5.9820018 a 3,3 0 0 1 -1.631878,2.9066601 3,3 0 1 0 2.718244,5.348939 3,3 0 0 1 3.309896,0.395329 l 4.558281,3.901548 a 3,3 0 0 1 0.901406,3.209231 3,3 0 1 0 5.70436,1.860182 3,3 0 0 1 2.61999,-2.06091 l 5.9820024,-0.46438 a 3,3 0 0 1 2.9066593,1.631878 3,3 0 1 0 5.3489389,-2.718244 3,3 0 0 1 0.3953292,-3.309896 l 3.901548,-4.558281 a 3,3 0 0 1 3.2092312,-0.901406 3,3 0 0 0 1.860182,-5.70436 3,3 0 0 1 -2.06091,-2.61999 L 11.048171,0.70610412 A 3,3 0 0 1 12.680049,-2.2005557 3,3 0 1 0 9.961805,-7.5494946 3,3 0 0 1 6.6519088,-7.9448236 L 2.0936279,-11.846372 a 3,3 0 0 1 -0.9014059,-3.209231 3,3 0 0 0 -5.70436,-1.860182 3,3 0 0 1 -2.6199901,2.06091 l -5.9820029,0.464381 a 3,3 0 0 1 -2.906659,-1.631879 3,3 0 1 0 -5.348939,2.718244"
         style="fill:none;fill-rule:evenodd;stroke:#000000;stroke-width:0.02;stroke-miterlimit:4;stroke-dasharray:none;stroke-opacity:1" />
      <path
         inkscape:connector-curvature="0"
         id="Sketch_w0001-0"
         d="m -9.5404453,6.188955 a 1.35,1.35 0 1 1 1.9183326,0 l -1.9183326,0"
         style="fill:none;fill-rule:evenodd;stroke:#000000;stroke-width:0.02;stroke-miterlimit:4;stroke-dasharray:none;stroke-opacity:1" />
      <title
         id="title4306-3">Sketch</title>
    </g>
    <g
       id="Sketch-44-6"
       transform="matrix(3.5433073,0,0,-3.5433073,290.01531,106.22975)"
       style="fill:none;stroke:#000000;stroke-opacity:1;stroke-width:0.02;stroke-miterlimit:4;stroke-dasharray:none">
      <path
         inkscape:connector-curvature="0"
         id="Sketch_w0000-8-7"
         d="m -21.369729,-13.304129 a 3,3 0 0 1 -0.395329,3.3098963 l -3.901548,4.5582806 a 3,3 0 0 1 -3.209231,0.9014061 3,3 0 1 0 -1.860182,5.70436 3,3 0 0 1 2.06091,2.6199901 l 0.46438,5.9820018 a 3,3 0 0 1 -1.631878,2.9066601 3,3 0 0 0 2.718244,5.348939 3,3 0 0 1 3.309896,0.395329 l 4.558281,3.901548 a 3,3 0 0 1 0.901406,3.209231 3,3 0 1 0 5.70436,1.860182 3,3 0 0 1 2.61999,-2.06091 l 5.9820024,-0.46438 a 3,3 0 0 1 2.9066593,1.631878 3,3 0 0 0 5.3489389,-2.718244 3,3 0 0 1 0.3953292,-3.309896 l 3.901548,-4.558281 a 3,3 0 0 1 3.2092312,-0.901406 3,3 0 1 0 1.860182,-5.70436 3,3 0 0 1 -2.06091,-2.61999 L 11.048171,0.70610412 A 3,3 0 0 1 12.680049,-2.2005557 3,3 0 1 0 9.961805,-7.5494946 3,3 0 0 1 6.6519088,-7.9448236 L 2.0936279,-11.846372 a 3,3 0 0 1 -0.9014059,-3.209231 3,3 0 0 0 -5.70436,-1.860182 3,3 0 0 1 -2.6199901,2.06091 l -5.9820029,0.464381 a 3,3 0 0 1 -2.906659,-1.631879 3,3 0 1 0 -5.348939,2.718244"
         style="fill:none;fill-rule:evenodd;stroke:#000000;stroke-width:0.02;stroke-miterlimit:4;stroke-dasharray:none;stroke-opacity:1" />
      <circle
         cx="-8.5812788"
         cy="5.238955"
         r="9"
         style="fill:none;stroke:#000000;stroke-width:0.02;stroke-miterlimit:4;stroke-dasharray:none;stroke-opacity:1"
         id="circle5566-1" />
      <title
         id="title5568-6">Sketch</title>
    </g>
    <g
       id="Sketch-7"
       transform="matrix(3.5433073,0,0,-3.5433073,631.44687,106.22975)"
       style="fill:none;stroke:#000000;stroke-opacity:1;stroke-width:0.02;stroke-miterlimit:4;stroke-dasharray:none">
      <path
         inkscape:connector-curvature="0"
         id="Sketch_w0000-1"
         d="m -21.369729,-13.304129 a 3,3 0 0 1 -0.395329,3.3098963 l -3.901548,4.5582806 a 3,3 0 0 1 -3.209231,0.9014061 3,3 0 1 0 -1.860182,5.70436 3,3 0 0 1 2.06091,2.6199901 l 0.46438,5.9820018 a 3,3 0 0 1 -1.631878,2.9066601 3,3 0 0 0 2.718244,5.348939 3,3 0 0 1 3.309896,0.395329 l 4.558281,3.901548 a 3,3 0 0 1 0.901406,3.209231 3,3 0 0 0 5.70436,1.860182 3,3 0 0 1 2.61999,-2.06091 l 5.9820024,-0.46438 a 3,3 0 0 1 2.9066593,1.631878 3,3 0 0 0 5.3489389,-2.718244 3,3 0 0 1 0.3953292,-3.309896 l 3.901548,-4.558281 a 3,3 0 0 1 3.2092312,-0.901406 3,3 0 0 0 1.860182,-5.70436 3,3 0 0 1 -2.06091,-2.61999 L 11.048171,0.70610412 A 3,3 0 0 1 12.680049,-2.2005557 3,3 0 0 0 9.961805,-7.5494946 3,3 0 0 1 6.6519088,-7.9448236 L 2.0936279,-11.846372 a 3,3 0 0 1 -0.9014059,-3.209231 3,3 0 0 0 -5.70436,-1.860182 3,3 0 0 1 -2.6199901,2.06091 l -5.9820029,0.464381 a 3,3 0 0 1 -2.906659,-1.631879 3,3 0 1 0 -5.348939,2.718244"
         style="fill:none;fill-rule:evenodd;stroke:#000000;stroke-width:0.02;stroke-miterlimit:4;stroke-dasharray:none;stroke-opacity:1" />
      <circle
         cx="-8.5812788"
         cy="5.238955"
         r="2"
         style="fill:none;stroke:#000000;stroke-width:0.02;stroke-miterlimit:4;stroke-dasharray:none;stroke-opacity:1"
         id="circle4367-2" />
      <title
         id="title4369-1">Sketch</title>
    </g>
    <g
       id="Sketch-70"
       transform="matrix(3.5433073,0,0,-3.5433073,466.79201,267.85416)"
       style="fill:none;stroke:#000000;stroke-opacity:1;stroke-width:0.02;stroke-miterlimit:4;stroke-dasharray:none">
      <path
         inkscape:connector-curvature="0"
         id="Sketch_w0000-10"
         d="m -21.369729,-13.304129 a 3,3 0 0 1 -0.395329,3.3098963 l -3.901548,4.5582806 a 3,3 0 0 1 -3.209231,0.9014061 3,3 0 1 0 -1.860182,5.70436 3,3 0 0 1 2.06091,2.6199901 l 0.46438,5.9820018 a 3,3 0 0 1 -1.631878,2.9066601 3,3 0 0 0 2.718244,5.348939 3,3 0 0 1 3.309896,0.395329 l 4.558281,3.901548 a 3,3 0 0 1 0.901406,3.209231 3,3 0 0 0 5.70436,1.860182 3,3 0 0 1 2.61999,-2.06091 l 5.9820024,-0.46438 a 3,3 0 0 1 2.9066593,1.631878 3,3 0 0 0 5.3489389,-2.718244 3,3 0 0 1 0.3953292,-3.309896 l 3.901548,-4.558281 a 3,3 0 0 1 3.2092312,-0.901406 3,3 0 0 0 1.860182,-5.70436 3,3 0 0 1 -2.06091,-2.61999 L 11.048171,0.70610412 A 3,3 0 0 1 12.680049,-2.2005557 3,3 0 0 0 9.961805,-7.5494946 3,3 0 0 1 6.6519088,-7.9448236 L 2.0936279,-11.846372 a 3,3 0 0 1 -0.9014059,-3.209231 3,3 0 0 0 -5.70436,-1.860182 3,3 0 0 1 -2.6199901,2.06091 l -5.9820029,0.464381 a 3,3 0 0 1 -2.906659,-1.631879 3,3 0 1 0 -5.348939,2.718244"
         style="fill:none;fill-rule:evenodd;stroke:#000000;stroke-width:0.02;stroke-miterlimit:4;stroke-dasharray:none;stroke-opacity:1" />
      <circle
         cx="-8.5812788"
         cy="5.238955"
         r="2"
         style="fill:none;stroke:#000000;stroke-width:0.02;stroke-miterlimit:4;stroke-dasharray:none;stroke-opacity:1"
         id="circle4367-6" />
      <title
         id="title4369-8">Sketch</title>
    </g>
    <g
       id="Sketch-2"
       transform="matrix(3.5433073,0,0,-3.5433073,641.5484,267.85416)"
       style="fill:none;stroke:#000000;stroke-opacity:1;stroke-width:0.02;stroke-miterlimit:4;stroke-dasharray:none">
      <path
         inkscape:connector-curvature="0"
         id="Sketch_w0000-2"
         d="m -21.369729,-13.304129 a 3,3 0 0 1 -0.395329,3.3098963 l -3.901548,4.5582806 a 3,3 0 0 1 -3.209231,0.9014061 3,3 0 1 0 -1.860182,5.70436 3,3 0 0 1 2.06091,2.6199901 l 0.46438,5.9820018 a 3,3 0 0 1 -1.631878,2.9066601 3,3 0 0 0 2.718244,5.348939 3,3 0 0 1 3.309896,0.395329 l 4.558281,3.901548 a 3,3 0 0 1 0.901406,3.209231 3,3 0 0 0 5.70436,1.860182 3,3 0 0 1 2.61999,-2.06091 l 5.9820024,-0.46438 a 3,3 0 0 1 2.9066593,1.631878 3,3 0 0 0 5.3489389,-2.718244 3,3 0 0 1 0.3953292,-3.309896 l 3.901548,-4.558281 a 3,3 0 0 1 3.2092312,-0.901406 3,3 0 0 0 1.860182,-5.70436 3,3 0 0 1 -2.06091,-2.61999 L 11.048171,0.70610412 A 3,3 0 0 1 12.680049,-2.2005557 3,3 0 0 0 9.961805,-7.5494946 3,3 0 0 1 6.6519088,-7.9448236 L 2.0936279,-11.846372 a 3,3 0 0 1 -0.9014059,-3.209231 3,3 0 0 0 -5.70436,-1.860182 3,3 0 0 1 -2.6199901,2.06091 l -5.9820029,0.464381 a 3,3 0 0 1 -2.906659,-1.631879 3,3 0 1 0 -5.348939,2.718244"
         style="fill:none;fill-rule:evenodd;stroke:#000000;stroke-width:0.02;stroke-miterlimit:4;stroke-dasharray:none;stroke-opacity:1" />
      <circle
         cx="-8.5812788"
         cy="5.238955"
         r="2"
         style="fill:none;stroke:#000000;stroke-width:0.02;stroke-miterlimit:4;stroke-dasharray:none;stroke-opacity:1"
         id="circle4367-5" />
      <title
         id="title4369-7">Sketch</title>
    </g>
    <g
       id="Sketch-6-5"
       transform="matrix(3.5433071,0,0,-3.5433068,346.48232,350.30619)"
       style="fill:none;stroke:#000000;stroke-opacity:1;stroke-width:0.02;stroke-miterlimit:4;stroke-dasharray:none">
      <circle
         cx="0"
         cy="0"
         r="9"
         style="fill:none;stroke:#000000;stroke-width:0.02;stroke-miterlimit:4;stroke-dasharray:none;stroke-opacity:1"
         id="circle6193-9" />
      <circle
         cx="0"
         cy="0"
         r="13"
         style="fill:none;stroke:#000000;stroke-width:0.02;stroke-miterlimit:4;stroke-dasharray:none;stroke-opacity:1"
         id="circle6195-0" />
      <title
         id="title6197-0">Sketch</title>
    </g>
    <g
       id="Sketch-6-4"
       transform="matrix(3.5433071,0,0,-3.5433068,519.21841,343.23511)"
       style="fill:none;stroke:#000000;stroke-opacity:1;stroke-width:0.02;stroke-miterlimit:4;stroke-dasharray:none">
      <circle
         cx="0"
         cy="0"
         r="9"
         style="fill:none;stroke:#000000;stroke-width:0.02;stroke-miterlimit:4;stroke-dasharray:none;stroke-opacity:1"
         id="circle6193-7" />
      <circle
         cx="0"
         cy="0"
         r="13"
         style="fill:none;stroke:#000000;stroke-width:0.02;stroke-miterlimit:4;stroke-dasharray:none;stroke-opacity:1"
         id="circle6195-4" />
      <title
         id="title6197-4">Sketch</title>
    </g>
    <g
       id="Sketch-6-3"
       transform="matrix(3.5433071,0,0,-3.5433068,86.873118,373.5397)"
       style="fill:none;stroke:#000000;stroke-opacity:1;stroke-width:0.02;stroke-miterlimit:4;stroke-dasharray:none">
      <circle
         cx="0"
         cy="0"
         r="9"
         style="fill:none;stroke:#000000;stroke-width:0.02;stroke-miterlimit:4;stroke-dasharray:none;stroke-opacity:1"
         id="circle6193-3" />
      <circle
         cx="0"
         cy="0"
         r="13"
         style="fill:none;stroke:#000000;stroke-width:0.02;stroke-miterlimit:4;stroke-dasharray:none;stroke-opacity:1"
         id="circle6195-9" />
      <title
         id="title6197-3">Sketch</title>
    </g>
  </g>
</svg>
